<svg xmlns="http://www.w3.org/2000/svg" width="1000" height="620" viewBox="0 0 1000 620">
  <defs>
    <linearGradient id="cyan" x1="0" y1="0" x2="1" y2="1">
      <stop offset="0" stop-color="#7CE7FF"/>
      <stop offset="1" stop-color="#27D3FF"/>
    </linearGradient>
    <filter id="shadow" x="-20%" y="-20%" width="140%" height="140%">
      <feDropShadow dx="0" dy="10" stdDeviation="14" flood-color="#000000" flood-opacity="0.38"/>
    </filter>

    <symbol id="banner-v3" viewBox="0 0 520 292">
      <rect x="0" y="0" width="520" height="292" rx="0" fill="#071821" stroke="#27D3FF" stroke-width="5"/>

      <rect x="32" y="34" width="138" height="82" fill="#122F3B" stroke="#7CE7FF" stroke-width="4"/>
      <rect x="190" y="34" width="138" height="82" fill="#122F3B" stroke="#7CE7FF" stroke-width="4"/>
      <rect x="348" y="34" width="138" height="82" fill="#122F3B" stroke="#7CE7FF" stroke-width="4"/>

      <rect x="32" y="164" width="217" height="96" fill="#122F3B" stroke="#7CE7FF" stroke-width="4"/>
      <rect x="269" y="164" width="217" height="96" fill="#122F3B" stroke="#7CE7FF" stroke-width="4"/>

      <path d="M178 146 C218 86, 302 86, 342 146 C302 206, 218 206, 178 146 Z"
        fill="#071821" stroke="url(#cyan)" stroke-width="10" stroke-linecap="round" stroke-linejoin="round"/>
      <circle cx="260" cy="146" r="24" fill="#27D3FF"/>
      <circle cx="260" cy="146" r="10" fill="#071821"/>
      <circle cx="270" cy="136" r="4" fill="#BDF4FF"/>
    </symbol>
  </defs>

  <rect width="1000" height="620" fill="#041017"/>
  <g transform="translate(110 91)" filter="url(#shadow)">
    <use href="#banner-v3" width="780" height="438"/>
  </g>
</svg>
